<?xml version="1.0" encoding="utf-8"?>
<!-- Generator: Adobe Illustrator 22.0.0, SVG Export Plug-In . SVG Version: 6.00 Build 0)  -->
<svg version="1.1" id="Layer_1" xmlns="http://www.w3.org/2000/svg" xmlns:xlink="http://www.w3.org/1999/xlink" x="0px" y="0px"
	 viewBox="0 0 20 20" style="enable-background:new 0 0 20 20;" xml:space="preserve">
<style type="text/css">
	.st0{fill:#418DCB;stroke:#418DCB;stroke-width:0.3;stroke-miterlimit:10;}
	.st1{fill:#418DCB;}
</style>
<path class="st0" d="M9.6,3.3c-2.4,0-4.4,2-4.4,4.4c0,2.4,2,4.4,4.4,4.4c1.5,0,2.9-0.8,3.7-2v2c0,2-1.6,3.7-3.7,3.7v0.7
	c2.4,0,4.4-2,4.4-4.4V7.7C14,5.3,12,3.3,9.6,3.3z M9.6,11.4c-2,0-3.7-1.6-3.7-3.7c0-2,1.6-3.7,3.7-3.7c2,0,3.7,1.6,3.7,3.7
	C13.2,9.7,11.6,11.4,9.6,11.4z"/>
<g>
	<path class="st1" d="M9.6,1.5c4.6,0,8.4,3.8,8.4,8.4s-3.8,8.4-8.4,8.4s-8.4-3.8-8.4-8.4S4.9,1.5,9.6,1.5 M9.6,0.5
		c-5.2,0-9.4,4.2-9.4,9.4s4.2,9.4,9.4,9.4S19,15.1,19,9.9S14.8,0.5,9.6,0.5L9.6,0.5z"/>
</g>
</svg>
